# xmcd
#
# Track frame offsets:
#       150
#       12163
#       21938
#       34250
#       43625
#       58875
#       71618
#       82575
#       94450
#       106980
#       119450
#       137318
#       149988
#       164123
#       175058
#       187665
#       194223
#       205473
#       215210
#       225635
#       239925
#       253800
#       262225
#       278498
#       292485
#       304510
#       328010
#
# Disc length: 4581 seconds
#
# Revision: 0
# Processed by: cddbd v1.5PL3 Copyright (c) Steve Scherf et al.
# Submitted via: WhereIsIt 3.11
#
DISCID=b311e31b
DTITLE=Jimmy Page - Studio Works 1964-1968
DYEAR=1900
DGENRE=
TTITLE0=Neil Christian and The Crusaders - Get A Load Of This
TTITLE1=Neil Christian and The Crusaders - Honey Huhs
TTITLE2=Neil Christian and The Crusaders - Crusading
TTITLE3=The All Stars - L.A.Breakdown
TTITLE4=The All Stars - Down In The Boots
TTITLE5=Nico - I'm Not Saying
TTITLE6=Nico - The Last Mile
TTITLE7=Gregory Phillips - Down In The Boomdoocks
TTITLE8=The Masterminds - Taken My Love
TTITLE9=The Masterminds - She Belongs To Me
TTITLE10=John Mayall's Bluesbreakers - Telephone Blues
TTITLE11=John Mayall's Bluesbreakers - On Top Of The World
TTITLE12=Eric Clapton and Jimmy Page - Draggin' My Tail
TTITLE13=Eric Clapton and Jimmy Page - Miles Road
TTITLE14=Eric Clapton and Jimmy Page - Freight Loader
TTITLE15=Eric Clapton and Jimmy Page - Choker
TTITLE16=Eric Clapton -  Snake Drive
TTITLE17=Eric Clapton -  Tribute To Elmore
TTITLE18=Eric Clapton -  West Coast Idea
TTITLE19=Twice As Much - Sitting On A Fence
TTITLE20=Fleur De Lys - Circles
TTITLE21=Fleur De Lys - So Come
TTITLE22=Chris Farlow - Out Of Time
TTITLE23=Twice As Much - Step Out Of Line
TTITLE24=Joe Cocker - Marjorine
TTITLE25=Joe Cocker - With A Little Help From My Friends
TTITLE26=Joe Cocker - Bye Bye Blackbird
EXTD=
EXTT0=
EXTT1=
EXTT2=
EXTT3=
EXTT4=
EXTT5=
EXTT6=
EXTT7=
EXTT8=
EXTT9=
EXTT10=
EXTT11=
EXTT12=
EXTT13=
EXTT14=
EXTT15=
EXTT16=
EXTT17=
EXTT18=
EXTT19=
EXTT20=
EXTT21=
EXTT22=
EXTT23=
EXTT24=
EXTT25=
EXTT26=
PLAYORDER=
